<svg width="55" height="55" viewBox="0 0 55 55" fill="none" xmlns="http://www.w3.org/2000/svg">
<path d="M0.5 0.5H54.5V54.5H0.5V0.5Z" stroke="#FFCA42"/>
<g clip-path="url(#clip0_1_428)">
<path d="M27.5 23.6074C25.125 23.6074 23.2324 25.5371 23.2324 27.875C23.2324 30.25 25.125 32.1426 27.5 32.1426C29.8379 32.1426 31.7676 30.25 31.7676 27.875C31.7676 25.5371 29.8379 23.6074 27.5 23.6074ZM27.5 30.6582C25.9785 30.6582 24.7168 29.4336 24.7168 27.875C24.7168 26.3535 25.9414 25.1289 27.5 25.1289C29.0215 25.1289 30.2461 26.3535 30.2461 27.875C30.2461 29.4336 29.0215 30.6582 27.5 30.6582ZM32.918 23.459C32.918 22.9023 32.4727 22.457 31.916 22.457C31.3594 22.457 30.9141 22.9023 30.9141 23.459C30.9141 24.0156 31.3594 24.4609 31.916 24.4609C32.4727 24.4609 32.918 24.0156 32.918 23.459ZM35.7383 24.4609C35.6641 23.125 35.3672 21.9375 34.4023 20.9727C33.4375 20.0078 32.25 19.7109 30.9141 19.6367C29.541 19.5625 25.4219 19.5625 24.0488 19.6367C22.7129 19.7109 21.5625 20.0078 20.5605 20.9727C19.5957 21.9375 19.2988 23.125 19.2246 24.4609C19.1504 25.834 19.1504 29.9531 19.2246 31.3262C19.2988 32.6621 19.5957 33.8125 20.5605 34.8145C21.5625 35.7793 22.7129 36.0762 24.0488 36.1504C25.4219 36.2246 29.541 36.2246 30.9141 36.1504C32.25 36.0762 33.4375 35.7793 34.4023 34.8145C35.3672 33.8125 35.6641 32.6621 35.7383 31.3262C35.8125 29.9531 35.8125 25.834 35.7383 24.4609ZM33.957 32.7734C33.6973 33.5156 33.1035 34.0723 32.3984 34.3691C31.2852 34.8145 28.6875 34.7031 27.5 34.7031C26.2754 34.7031 23.6777 34.8145 22.6016 34.3691C21.8594 34.0723 21.3027 33.5156 21.0059 32.7734C20.5605 31.6973 20.6719 29.0996 20.6719 27.875C20.6719 26.6875 20.5605 24.0898 21.0059 22.9766C21.3027 22.2715 21.8594 21.7148 22.6016 21.418C23.6777 20.9727 26.2754 21.084 27.5 21.084C28.6875 21.084 31.2852 20.9727 32.3984 21.418C33.1035 21.6777 33.6602 22.2715 33.957 22.9766C34.4023 24.0898 34.291 26.6875 34.291 27.875C34.291 29.0996 34.4023 31.6973 33.957 32.7734Z" fill="white"/>
</g>
<defs>
<clipPath id="clip0_1_428">
<rect width="17" height="18" fill="white" transform="translate(19 19)"/>
</clipPath>
</defs>
</svg>
