<svg width="45" height="45" viewBox="0 0 45 45" fill="none" xmlns="http://www.w3.org/2000/svg">
<path d="M1 1H44V44H1V1Z" fill="white" stroke="white" stroke-width="2"/>
<g clip-path="url(#clip0_1_19)">
<path d="M19.1094 29V20.8242H16.5664V29H19.1094ZM17.8242 19.7305C18.6445 19.7305 19.3008 19.0469 19.3008 18.2266C19.3008 17.4336 18.6445 16.7773 17.8242 16.7773C17.0312 16.7773 16.375 17.4336 16.375 18.2266C16.375 19.0469 17.0312 19.7305 17.8242 19.7305ZM28.5977 29H28.625V24.5156C28.625 22.3281 28.1328 20.6328 25.5625 20.6328C24.332 20.6328 23.5117 21.3164 23.1562 21.9453H23.1289V20.8242H20.6953V29H23.2383V24.9531C23.2383 23.8867 23.4297 22.875 24.7422 22.875C26.0547 22.875 26.082 24.0781 26.082 25.0352V29H28.5977Z" fill="#141414"/>
</g>
<defs>
<clipPath id="clip0_1_19">
<rect width="13" height="13" fill="white" transform="translate(16 16)"/>
</clipPath>
</defs>
</svg>
