<svg width="55" height="55" viewBox="0 0 55 55" fill="none" xmlns="http://www.w3.org/2000/svg">
<path d="M0.5 0.5H54.5V54.5H0.5V0.5Z" stroke="#FFCA42"/>
<g clip-path="url(#clip0_1_420)">
<path d="M24.125 35V25.6562H21.2188V35H24.125ZM22.6562 24.4062C23.5938 24.4062 24.3438 23.625 24.3438 22.6875C24.3438 21.7812 23.5938 21.0312 22.6562 21.0312C21.75 21.0312 21 21.7812 21 22.6875C21 23.625 21.75 24.4062 22.6562 24.4062ZM34.9688 35H35V29.875C35 27.375 34.4375 25.4375 31.5 25.4375C30.0938 25.4375 29.1562 26.2188 28.75 26.9375H28.7188V25.6562H25.9375V35H28.8438V30.375C28.8438 29.1562 29.0625 28 30.5625 28C32.0625 28 32.0938 29.375 32.0938 30.4688V35H34.9688Z" fill="white"/>
</g>
<defs>
<clipPath id="clip0_1_420">
<rect width="14" height="14" fill="white" transform="translate(21 21)"/>
</clipPath>
</defs>
</svg>
