<svg width="258" height="40" viewBox="0 0 10 40" fill="none" xmlns="http://www.w3.org/2000/svg">
<path d="M14 18C14.5523 18 15 18.4477 15 19C15 19.5523 14.5523 20 14 20C13.4477 20 13 19.5523 13 19C13 18.4477 13.4477 18 14 18Z" stroke="#FFCA42" stroke-width="1.5"/>
<path d="M21 18C21.5523 18 22 18.4477 22 19C22 19.5523 21.5523 20 21 20C20.4477 20 20 19.5523 20 19C20 18.4477 20.4477 18 21 18Z" stroke="#FFCA42" stroke-width="1.5"/>
<path d="M28 18C28.5523 18 29 18.4477 29 19C29 19.5523 28.5523 20 28 20C27.4477 20 27 19.5523 27 19C27 18.4477 27.4477 18 28 18Z" stroke="#FFCA42" stroke-width="1.5"/>
</svg>
