<svg width="25" height="28" viewBox="0 0 25 28" fill="none" xmlns="http://www.w3.org/2000/svg">
<path d="M3.56348 22.4H24.5V0H3.5057C1.57228 0.00642 0.00635613 1.58725 0 3.53908V24.1646H0.00057783C0.00057783 24.1733 0 24.1821 0 24.1908C0 26.2558 1.60521 28 3.5057 28H24.5V26.1333H3.5057C2.63895 26.1333 1.84906 25.2076 1.84906 24.1908C1.84906 23.2202 2.63433 22.4 3.56348 22.4ZM5.54717 1.88592H11.0943V11.9671L8.29764 9.4885L5.54717 11.9525V1.88592ZM1.84906 3.55367C1.84617 2.62617 2.58695 1.87192 3.5057 1.86667H3.69811H5.54717H3.69811V14.4667H5.52637L8.30458 11.9782L11.1117 14.4667H12.9434V1.86667H22.6509V20.5333H5.55179H3.70274H3.56348C2.96196 20.5333 2.37141 20.692 1.84963 20.993V3.55367H1.84906Z" fill="#FFCA42"/>
</svg>
