<svg width="45" height="45" viewBox="0 0 45 45" fill="none" xmlns="http://www.w3.org/2000/svg">
<path d="M1 1H44V44H1V1Z" fill="white" stroke="white" stroke-width="2"/>
<g clip-path="url(#clip0_1_15)">
<path d="M28.5508 19.9062C29.0977 19.4961 29.5898 19.0039 29.9727 18.4297C29.4805 18.6484 28.9062 18.8125 28.332 18.8672C28.9336 18.5117 29.3711 17.9648 29.5898 17.2812C29.043 17.6094 28.4141 17.8555 27.7852 17.9922C27.2383 17.418 26.5 17.0898 25.6797 17.0898C24.0938 17.0898 22.8086 18.375 22.8086 19.9609C22.8086 20.1797 22.8359 20.3984 22.8906 20.6172C20.5117 20.4805 18.3789 19.332 16.957 17.6094C16.7109 18.0195 16.5742 18.5117 16.5742 19.0586C16.5742 20.043 17.0664 20.918 17.8594 21.4375C17.3945 21.4102 16.9297 21.3008 16.5469 21.082V21.1094C16.5469 22.5039 17.5312 23.6523 18.8438 23.9258C18.625 23.9805 18.3516 24.0352 18.1055 24.0352C17.9141 24.0352 17.75 24.0078 17.5586 23.9805C17.9141 25.1289 18.9805 25.9492 20.2383 25.9766C19.2539 26.7422 18.0234 27.207 16.6836 27.207C16.4375 27.207 16.2188 27.1797 16 27.1523C17.2578 27.9727 18.7617 28.4375 20.4023 28.4375C25.6797 28.4375 28.5508 24.0898 28.5508 20.2891C28.5508 20.1523 28.5508 20.043 28.5508 19.9062Z" fill="#141414"/>
</g>
<defs>
<clipPath id="clip0_1_15">
<rect width="14" height="12" fill="white" transform="translate(16 17)"/>
</clipPath>
</defs>
</svg>
