<svg width="55" height="55" viewBox="0 0 55 55" fill="none" xmlns="http://www.w3.org/2000/svg">
<path d="M0.5 0.5H54.5V54.5H0.5V0.5Z" stroke="#FFCA42"/>
<g clip-path="url(#clip0_1_424)">
<path d="M34.3438 24.75C34.9688 24.2812 35.5312 23.7188 35.9688 23.0625C35.4062 23.3125 34.75 23.5 34.0938 23.5625C34.7812 23.1562 35.2812 22.5312 35.5312 21.75C34.9062 22.125 34.1875 22.4062 33.4688 22.5625C32.8438 21.9062 32 21.5312 31.0625 21.5312C29.25 21.5312 27.7812 23 27.7812 24.8125C27.7812 25.0625 27.8125 25.3125 27.875 25.5625C25.1562 25.4062 22.7188 24.0938 21.0938 22.125C20.8125 22.5938 20.6562 23.1562 20.6562 23.7812C20.6562 24.9062 21.2188 25.9062 22.125 26.5C21.5938 26.4688 21.0625 26.3438 20.625 26.0938V26.125C20.625 27.7188 21.75 29.0312 23.25 29.3438C23 29.4062 22.6875 29.4688 22.4062 29.4688C22.1875 29.4688 22 29.4375 21.7812 29.4062C22.1875 30.7188 23.4062 31.6562 24.8438 31.6875C23.7188 32.5625 22.3125 33.0938 20.7812 33.0938C20.5 33.0938 20.25 33.0625 20 33.0312C21.4375 33.9688 23.1562 34.5 25.0312 34.5C31.0625 34.5 34.3438 29.5312 34.3438 25.1875C34.3438 25.0312 34.3438 24.9062 34.3438 24.75Z" fill="white"/>
</g>
<defs>
<clipPath id="clip0_1_424">
<rect width="16" height="14" fill="white" transform="translate(20 21)"/>
</clipPath>
</defs>
</svg>
